<svg height="100%" width="100%" id="svg" viewBox="0 0 1440 500" xmlns="http://www.w3.org/2000/svg" class="transition duration-300 ease-in-out delay-150"><defs><linearGradient id="gradient"><stop offset="5%" stop-color="#002bdc44"></stop><stop offset="95%" stop-color="#32ded444"></stop></linearGradient></defs><path d="M 0,500 C 0,500 0,100 0,100 C 43.694269185205385,107.217455052867 87.38853837041077,114.434910105734 131,105 C 174.61146162958923,95.565089894266 218.1401157035623,69.47781462993099 264,67 C 309.8598842964377,64.52218537006901 358.05099881534005,85.65383137454202 405,91 C 451.94900118465995,96.34616862545798 497.6558890350776,85.90685987190089 533,87 C 568.3441109649224,88.09314012809911 593.3254450443494,100.7187291378544 640,99 C 686.6745549556506,97.2812708621456 755.0423307875243,81.2182235766815 803,90 C 850.9576692124757,98.7817764233185 878.505231805553,132.4083765554196 915,135 C 951.494768194447,137.5916234445804 996.9367419902642,109.14827020164009 1049,108 C 1101.0632580097358,106.85172979835991 1159.7478002333903,132.99854263801996 1197,134 C 1234.2521997666097,135.00145736198004 1250.0720570761741,110.85755924628 1287,101 C 1323.9279429238259,91.14244075372 1381.963971461913,95.57122037686 1440,100 C 1440,100 1440,500 1440,500 Z" stroke="none" stroke-width="0" fill="url(#gradient)" class="transition-all duration-300 ease-in-out delay-150"></path><defs><linearGradient id="gradient"><stop offset="5%" stop-color="#002bdc66"></stop><stop offset="95%" stop-color="#32ded466"></stop></linearGradient></defs><path d="M 0,500 C 0,500 0,200 0,200 C 51.496932102514705,186.24029650144587 102.99386420502941,172.4805930028917 150,172 C 197.0061357949706,171.5194069971083 239.5214752823971,184.31792448987906 283,198 C 326.4785247176029,211.68207551012094 370.92023466538217,226.24770903759216 410,227 C 449.07976533461783,227.75229096240784 482.797586056074,214.69123935975236 526,203 C 569.202413943926,191.30876064024764 621.889421110322,180.98733352339838 668,174 C 714.110578889678,167.01266647660162 753.6447295026377,163.35942654665416 796,169 C 838.3552704973623,174.64057345334584 883.5316608791272,189.57496028998494 921,203 C 958.4683391208728,216.42503971001506 988.2286269808526,228.3407322934061 1034,226 C 1079.7713730191474,223.6592677065939 1141.5538311974626,207.06211053639066 1187,193 C 1232.4461688025374,178.93788946360934 1261.5560482292963,167.41082556103123 1301,169 C 1340.4439517707037,170.58917443896877 1390.2219758853519,185.29458721948438 1440,200 C 1440,200 1440,500 1440,500 Z" stroke="none" stroke-width="0" fill="url(#gradient)" class="transition-all duration-300 ease-in-out delay-150"></path><defs><linearGradient id="gradient"><stop offset="5%" stop-color="#002bdc88"></stop><stop offset="95%" stop-color="#32ded488"></stop></linearGradient></defs><path d="M 0,500 C 0,500 0,300 0,300 C 50.20922972310122,297.2922887312097 100.41845944620243,294.58457746241936 145,288 C 189.58154055379757,281.41542253758064 228.5353919382914,270.95397888153224 272,272 C 315.4646080617086,273.04602111846776 363.43997280063184,285.5995070114517 406,287 C 448.56002719936816,288.4004929885483 485.7047168591813,278.6479930726609 530,279 C 574.2952831408187,279.3520069273391 625.7411597626431,289.8085206979046 667,290 C 708.2588402373569,290.1914793020954 739.3306440902467,280.1179241357206 780,286 C 820.6693559097533,291.8820758642794 870.9362638763703,313.719782759213 912,312 C 953.0637361236297,310.280217240787 984.9243004042719,285.0029448274275 1030,284 C 1075.075699595728,282.9970551725725 1133.3665345065422,306.2684379310772 1180,312 C 1226.6334654934578,317.7315620689228 1261.6095615695594,305.92330344826365 1303,301 C 1344.3904384304406,296.07669655173635 1392.1952192152203,298.0383482758682 1440,300 C 1440,300 1440,500 1440,500 Z" stroke="none" stroke-width="0" fill="url(#gradient)" class="transition-all duration-300 ease-in-out delay-150"></path><defs><linearGradient id="gradient"><stop offset="5%" stop-color="#002bdcff"></stop><stop offset="95%" stop-color="#32ded4ff"></stop></linearGradient></defs><path d="M 0,500 C 0,500 0,400 0,400 C 37.39452718962882,388.8354208022043 74.78905437925764,377.67084160440857 122,381 C 169.21094562074236,384.32915839559143 226.23830967259823,402.15205438457 272,404 C 317.76169032740177,405.84794561543 352.25770693034946,391.7209408573113 397,383 C 441.74229306965054,374.2790591426887 496.73086260600405,370.96418218618464 542,379 C 587.269137393996,387.03581781381536 622.8188426456344,406.4223303979502 668,410 C 713.1811573543656,413.5776696020498 767.9937668114585,401.34649622201476 806,402 C 844.0062331885415,402.65350377798524 865.2060901085317,416.1916847139906 904,409 C 942.7939098914683,401.8083152860094 999.1818727544141,373.88676492202313 1052,364 C 1104.8181272455859,354.11323507797687 1154.0664188738115,362.2612555979169 1196,365 C 1237.9335811261885,367.7387444020831 1272.5524517503395,365.06821268630944 1312,370 C 1351.4475482496605,374.93178731369056 1395.7237741248302,387.4658936568453 1440,400 C 1440,400 1440,500 1440,500 Z" stroke="none" stroke-width="0" fill="url(#gradient)" class="transition-all duration-300 ease-in-out delay-150"></path></svg>